<svg xmlns="http://www.w3.org/2000/svg" viewBox="0 0 720 160"><defs><style>.cls-1{fill:#fff;}</style></defs><g id="Слой_2" data-name="Слой 2"><g id="контент"><g id="_1" data-name="1"><path id="signature" class="cls-1" d="M284,133l-.27-49.3-23.92,40.13H248.1l-23.78-38.8v48H200V40h21.66l32.69,53.68L286.24,40H307.9l.26,93ZM400.39,61,369.3,136q-5.46,13.29-13.29,18.67T336.88,160a38.86,38.86,0,0,1-11.5-1.79,27.87,27.87,0,0,1-9.37-4.72l8.77-17.67a15.27,15.27,0,0,0,5.12,3.12,17.05,17.05,0,0,0,6.05,1.13,11,11,0,0,0,5.91-1.46,11.27,11.27,0,0,0,3.92-4.65L315,61h25.91l17.67,44,17.81-44Zm73.7-16.81a32.49,32.49,0,0,1,14.35,12,32.83,32.83,0,0,1,5.05,18.27,32.48,32.48,0,0,1-5.05,18.2,32.68,32.68,0,0,1-14.35,11.89q-9.31,4.19-21.93,4.19H436V133H409.64V40h42.52Q464.79,40,474.09,44.2Zm-11.3,40.26q4.13-3.52,4.12-10t-4.12-10.1q-4.11-3.59-12.22-3.59H436V88h14.62Q458.67,88,462.79,84.46ZM561.2,68q9.43,8.17,9.43,25v40H547.12v-9.3q-5.46,10.49-21.26,10.49a33.24,33.24,0,0,1-14.49-2.92,21.5,21.5,0,0,1-9.23-7.91A20.88,20.88,0,0,1,499,112q0-10.23,7.84-15.88T531,90.51h14.35q-.67-11.43-15.28-11.43a35,35,0,0,0-10.5,1.66,28.25,28.25,0,0,0-9,4.58l-8.5-17.14A47.32,47.32,0,0,1,516.62,62a69.24,69.24,0,0,1,17.21-2.19Q551.77,59.81,561.2,68Zm-20.6,48.17a11.87,11.87,0,0,0,4.79-6.24v-6.25h-10.9q-11,0-11,7.31a6.41,6.41,0,0,0,2.53,5.31,10.84,10.84,0,0,0,6.91,2A13.94,13.94,0,0,0,540.6,116.15Zm53.65,16a46.77,46.77,0,0,1-14.09-5.38l7.57-17.27a42.88,42.88,0,0,0,11.7,4.85,52.54,52.54,0,0,0,13.42,1.79q6.1,0,8.7-1.26a4,4,0,0,0,2.59-3.66q0-2.39-3.12-3.38a63.76,63.76,0,0,0-9.9-1.93,98,98,0,0,1-14.68-2.79A22.64,22.64,0,0,1,586,96.75q-4.39-4.65-4.39-13a19.65,19.65,0,0,1,4.12-12.29q4.13-5.39,12-8.51a51.55,51.55,0,0,1,18.93-3.12,76.07,76.07,0,0,1,15.55,1.6,45,45,0,0,1,12.89,4.51l-7.58,17.14a42,42,0,0,0-20.73-5.31q-6,0-8.77,1.39t-2.79,3.66c0,1.68,1,2.86,3.06,3.52a70.83,70.83,0,0,0,10.1,2.06,112.49,112.49,0,0,1,14.75,3.06,22.47,22.47,0,0,1,10.16,6.31q4.32,4.57,4.32,12.82a19.47,19.47,0,0,1-4.12,12.16q-4.11,5.38-12.15,8.44a54.75,54.75,0,0,1-19.34,3.05A77.17,77.17,0,0,1,594.25,132.16Zm72.33,0a46.81,46.81,0,0,1-14.08-5.38l7.57-17.27a42.88,42.88,0,0,0,11.7,4.85,52.48,52.48,0,0,0,13.42,1.79q6.1,0,8.7-1.26a4,4,0,0,0,2.59-3.66q0-2.39-3.12-3.38a63.76,63.76,0,0,0-9.9-1.93,98,98,0,0,1-14.68-2.79,22.59,22.59,0,0,1-10.43-6.38q-4.4-4.65-4.39-13a19.65,19.65,0,0,1,4.12-12.29q4.11-5.39,12-8.51A51.6,51.6,0,0,1,689,59.81a76.07,76.07,0,0,1,15.55,1.6,45,45,0,0,1,12.89,4.51L709.9,83.06a42,42,0,0,0-20.73-5.31c-4,0-6.91.46-8.77,1.39s-2.79,2.15-2.79,3.66c0,1.68,1,2.86,3.06,3.52a70.83,70.83,0,0,0,10.1,2.06,112.49,112.49,0,0,1,14.75,3.06,22.52,22.52,0,0,1,10.16,6.31q4.32,4.57,4.32,12.82a19.47,19.47,0,0,1-4.12,12.16q-4.12,5.38-12.16,8.44a54.65,54.65,0,0,1-19.33,3.05A77.26,77.26,0,0,1,666.58,132.16Z"/><path id="symbol" class="cls-1" d="M114.44,40H80V5.56A5.56,5.56,0,0,0,74.44,0H5.56A5.56,5.56,0,0,0,0,5.56V114.44A5.56,5.56,0,0,0,5.56,120H40v34.44A5.56,5.56,0,0,0,45.56,160h68.88a5.56,5.56,0,0,0,5.56-5.56V45.56A5.56,5.56,0,0,0,114.44,40ZM45.56,40A5.56,5.56,0,0,0,40,45.56V100H25a5,5,0,0,1-5-5V25.56A5.56,5.56,0,0,1,25.56,20H55a5,5,0,0,1,5,5V40Z"/></g></g></g></svg>